# AST/ASF file generated using VICON BodyLanguage
# -----------------------------------------------
:version 1.10
:name VICON
:units
  mass 1.0
  length 0.45
  angle deg
:documentation
   .ast/.asf automatically generated from VICON data using
   VICON BodyBuilder and BodyLanguage model FoxedUp or BRILLIANT.MOD
:root
   order TX TY TZ RX RY RZ
   axis XYZ
   position 0 0 0  
   orientation 0 0 0 
:bonedata
  begin
     id 1 
     name lhipjoint
     direction 0.693937 -0.600361 0.397515 
     length 2.37164 
     axis 0 0 0  XYZ
  end
  begin
     id 2 
     name lfemur
     direction 0.34202 -0.939693 0  
     length 6.18497  
     axis 0 0 20  XYZ
    dof rx ry rz
    limits (-160.0 20.0)
           (-70.0 70.0)
           (-60.0 70.0)
  end
  begin
     id 3 
     name ltibia
     direction 0.34202 -0.939693 0   
     length 6.91601   
     axis 0 0 20   XYZ
    dof rx
    limits (-10.0 170.0)
  end
  begin
     id 4 
     name lfoot
     direction 0.0978718 -0.2689 0.958182   
     length 1.81453   
     axis -90 7.62852e-016 20   XYZ
    dof rx rz
    limits (-45.0 90.0)
           (-70.0 20.0)
  end
  begin
     id 5 
     name ltoes
     direction 1.53569e-011 -4.21951e-011 1   
     length 0.912052   
     axis -90 7.62852e-016 20   XYZ
    dof rx
    limits (-90.0 20.0)
  end
  begin
     id 6 
     name rhipjoint
     direction -0.643996 -0.637876 0.422354   
     length 2.23216  
     axis 0 0 0  XYZ 
  end
  begin
     id 7 
     name rfemur
     direction -0.34202 -0.939693 0   
     length 6.15404   
     axis 0 0 -20   XYZ
    dof rx ry rz
    limits (-160.0 20.0)
           (-70.0 70.0)
           (-70.0 60.0)
  end
  begin
     id 8 
     name rtibia
     direction -0.34202 -0.939693 0   
     length 6.86744   
     axis 0 0 -20   XYZ
    dof rx
    limits (-10.0 170.0)
 end
 begin
     id 9 
     name rfoot
     direction -0.118701 -0.326127 0.937844   
     length 1.9243  
     axis -90 -7.62852e-016 -20   XYZ
    dof rx rz
    limits (-45.0 90.0)
           (-20.0 70.0)
  end
  begin
     id 10 
     name rtoes
     direction -1.5356e-011 -4.2181e-011 1   
     length 0.958865   
     axis -90 -7.62852e-016 -20   XYZ
    dof rx
    limits (-90.0 20.0)
  end
  begin
     id 11 
     name lowerback
     direction 0.0310826 0.968686 -0.246334   
     length 2.00021   
     axis 0 0 0   XYZ
    dof rx ry rz
    limits (-20.0 45.0)
           (-30.0 30.0)
           (-30.0 30.0)
  end
  begin
     id 12 
     name upperback
     direction -0.0152834 0.999474 -0.0286152   
     length 2.03728   
     axis 0 0 0   XYZ
    dof rx ry rz
    limits (-20.0 45.0)
           (-30.0 30.0)
           (-30.0 30.0)
  end
  begin
     id 13 
     name thorax
     direction -0.0323701 0.996236 0.0804149   
     length 2.16   
     axis 0 0 0   XYZ
    dof rx ry rz
    limits (-20.0 45.0)
           (-30.0 30.0)
           (-30.0 30.0)
  end
  begin
     id 14 
     name lowerneck
     direction 0.0307935 0.982251 0.185027   
     length 1.43558   
     axis 0 0 0   XYZ
    dof rx ry rz
    limits (-20.0 45.0)
           (-30.0 30.0)
           (-30.0 30.0)
  end
  begin
     id 15 
     name upperneck
     direction -0.0927153 0.994775 0.0427454   
     length 1.44603   
     axis 0 0 0   XYZ
    dof rx ry rz
    limits (-20.0 45.0)
           (-30.0 30.0)
           (-30.0 30.0)
  end
  begin
     id 16
     name head
     direction -0.0341265 0.999406 -0.00472033  
     length 1.45931  
     axis 0 0 0   XYZ
    dof rx ry rz
    limits (-20.0 45.0)
           (-30.0 30.0)
           (-30.0 30.0)
  end
  begin
     id 17 
     name lclavicle
     direction 0.820755 0.555306 -0.134151  
     length 2.66075  
     axis 0 0 0   XYZ
    dof ry rz
    limits (-20.0 10.0)
           (0.0 20.0)
  end
  begin
     id 18 
     name lhumerus
     direction 1 -4.48971e-011 5.24853e-027   
     length 5.0546   
     axis -180 -30 -90   XYZ
    dof rx ry rz
    limits (-60.0 90.0)
           (-90.0 90.0)
           (-90.0 90.0)
  end
  begin
     id 19
     name lradius
     direction 1 -4.48971e-011 2.76575e-028   
     length 3.39013   
     axis -180 -30 -90   XYZ
    dof rx
    limits (-10.0 170.0)
  end
  begin
     id 20
     name lwrist
     direction 1 -4.48939e-011 -2.27826e-027   
     length 1.69507   
     axis 2.17013e-015 90 90   XYZ
    dof ry
    limits (-180.0 0.0)
 end
  begin
     id 21 
     name lhand
     direction 1 -4.49009e-011 -4.55652e-027   
     length 0.572425   
     axis 2.90745e-015 90 90   XYZ
    dof rx rz
    limits (-90.0 90.0)
           (-45.0 45.0)
  end
  begin
     id 22 
     name lfingers
     direction 1 -4.48955e-011 -9.11303e-027   
     length 0.461504   
     axis 5.81489e-015 90 90   XYZ
    dof rx
    limits (0.0 90.0)
  end
  begin
     id 23
     name lthumb
     direction 0.707107 -6.34929e-011 0.707107   
     length 0.66263   
     axis -90 45 2.85299e-015   XYZ
    dof rx rz
    limits (-45.0 45.0)
           (-45.0 45.0)
  end
  begin
     id 24 
     name rclavicle
     direction -0.754477 0.632921 -0.173712   
     length 2.73081  
     axis 0 0 0   XYZ 
    dof ry rz
    limits (-10.0 20.0)
           (-20.0 0.0)
  end
  begin
     id 25 
     name rhumerus
     direction -1 -4.48969e-011 5.1496e-027  
     length 5.0701   
     axis -180 30 90   XYZ
    dof rx ry rz
    limits (-90.0 60.0)
           (-90.0 90.0)
           (-90.0 90.0)
  end
  begin
     id 26 
     name rradius
     direction -1 -4.48967e-011 -7.15624e-028   
     length 3.14957   
     axis -180 30 90   XYZ
    dof rx
    limits (-10.0 170.0)
  end
  begin
     id 27 
     name rwrist
     direction -1 -4.48938e-011 -2.27826e-027   
     length 1.57479   
     axis 2.17013e-015 -90 -90   XYZ
    dof ry
    limits (-180.0 0.0)
  end
  begin
     id 28
     name rhand
     direction -1 -4.49008e-011 -4.55652e-027   
     length 0.718191   
     axis 2.90745e-015 -90 -90   XYZ
    dof rx rz
    limits (-90.0 90.0)
           (-45.0 45.0)
  end
  begin
     id 29
     name rfingers
     direction -1 -4.48953e-011 -9.11303e-027   
     length 0.579024   
     axis 5.81489e-015 -90 -90   XYZ
    dof rx
    limits (0.0 90.0)
  end
  begin
     id 30
     name rthumb
     direction -0.707107 -6.34937e-011 0.707107   
     length 0.831366   
     axis -90 -45 -2.85299e-015   XYZ
    dof rx rz
    limits (-45.0 45.0)
           (-45.0 45.0)
  end
:hierarchy
  begin
    root lhipjoint rhipjoint lowerback
    lhipjoint lfemur
    lfemur ltibia
    ltibia lfoot
    lfoot ltoes
    rhipjoint rfemur
    rfemur rtibia
    rtibia rfoot
    rfoot rtoes
    lowerback upperback
    upperback thorax
    thorax lowerneck lclavicle rclavicle
    lowerneck upperneck
    upperneck head
    lclavicle lhumerus
    lhumerus lradius
    lradius lwrist
    lwrist lhand lthumb
    lhand lfingers
    rclavicle rhumerus
    rhumerus rradius
    rradius rwrist
    rwrist rhand rthumb
    rhand rfingers
  end

#!OML:ASF H:\Male1\Project 1\Capture day 1\Session 1\Male1.ASF
:FULLY-SPECIFIED
:DEGREES
124
root 26.9396 14.976 -2.87395 -8.30136 -76.7638 9.74996
lowerback 7.92815 0.350698 -5.55612
upperback 5.76675 -0.0361655 -0.778832
thorax 1.54158 -0.240655 2.31032
lowerneck -10.6477 3.14174 6.80987
upperneck 17.2625 3.28314 -2.01512
head 7.20109 1.78003 -1.47726
rclavicle -4.91992e-014 -2.78299e-014
rhumerus -32.6623 -4.52242 -85.9147
rradius 29.2197
rwrist -15.6718
rhand -16.9573 -1.5066
rfingers 7.12502
rthumb 9.27659 -31.2825
lclavicle -4.91992e-014 -2.78299e-014
lhumerus -24.778 -10.9159 91.7352
lradius 40.945
lwrist 4.6723
lhand -18.5441 8.99052
lfingers 7.12502
lthumb 7.74517 38.8287
rfemur -32.8536 11.7814 18.8741
rtibia 35.7705
rfoot -21.1177 -22.1208
rtoes -25.2738
lfemur 27.3669 -6.44996 -30.7155
ltibia -3.81667e-014
lfoot -13.6951 15.4844
ltoes -17.5004
125
root 26.6666 14.9836 -2.83223 -6.23233 -76.6329 7.66139
lowerback 7.86729 0.270036 -4.91902
upperback 5.73168 -0.0977584 -0.600715
thorax 1.53738 -0.253008 2.14204
lowerneck -10.6709 3.0934 6.78717
upperneck 17.3629 3.21151 -1.98219
head 7.23364 1.74748 -1.46961
rclavicle 1.98785e-016 1.92821e-014
rhumerus -32.9787 -4.86762 -85.7195
rradius 29.0664
rwrist -15.6339
rhand -16.7927 -1.53406
rfingers 7.12502
rthumb 9.43536 -31.3028
lclavicle 1.98785e-016 1.92821e-014
lhumerus -25.4603 -10.8757 91.74
lradius 41.1279
lwrist 4.5872
lhand -18.5971 8.82317
lfingers 7.12502
lthumb 7.694 38.6632
rfemur -31.8285 11.9055 19.6464
rtibia 35.918
rfoot -20.8188 -21.9644
rtoes -25.2881
lfemur 28.2233 -5.9712 -29.7592
ltibia 2.54444e-014
lfoot -10.967 14.5263
ltoes -19.0871
126
root 26.3886 14.9975 -2.79053 -4.08225 -76.5423 5.51491
lowerback 7.7991 0.196149 -4.24041
upperback 5.66717 -0.148491 -0.426515
thorax 1.5052 -0.257569 1.94533
lowerneck -10.6904 3.05967 6.75753
upperneck 17.5274 3.16107 -1.95578
head 7.28743 1.72424 -1.46104
rclavicle 4.72114e-015 -9.93923e-016
rhumerus -33.241 -5.11012 -85.5754
rradius 28.8604
rwrist -15.5657
rhand -16.631 -1.56952
rfingers 7.12502
rthumb 9.59137 -31.3312
lclavicle 4.72114e-015 -9.93923e-016
lhumerus -26.2039 -10.6356 91.6723
lradius 41.1359
lwrist 4.51397
lhand -18.779 8.85855
lfingers 7.12502
lthumb 7.51851 38.7049
rfemur -30.7404 11.9043 20.4828
rtibia 35.9895
rfoot -20.5617 -21.8518
rtoes -25.1674
lfemur 24.8404 -5.43625 -28.7764
ltibia 7.85138
lfoot -11.3105 13.3507
ltoes -20.5742
127
root 26.1068 15.0174 -2.74945 -2.0364 -76.4584 3.49382
lowerback 7.72378 0.133471 -3.59198
upperback 5.58536 -0.186734 -0.261335
thorax 1.45855 -0.256558 1.75501
lowerneck -10.7204 3.03857 6.72381
upperneck 17.7458 3.12631 -1.92717
head 7.36148 1.70856 -1.44952
rclavicle -1.45113e-014 -3.97569e-016
rhumerus -33.4294 -5.27186 -85.4648
rradius 28.6144
rwrist -15.4635
rhand -16.4966 -1.6178
rfingers 7.12502
rthumb 9.72101 -31.3735
lclavicle -1.45113e-014 -3.97569e-016
lhumerus -26.9684 -10.2668 91.5478
lradius 40.972
lwrist 4.50488
lhand -19.1055 9.16905
lfingers 7.12502
lthumb 7.20335 39.0264
rfemur -29.5749 11.7532 21.3229
rtibia 35.9227
rfoot -20.3939 -21.7709
rtoes -25.0324
lfemur 20.5507 -4.89098 -27.6585
ltibia 17.1717
lfoot -11.5407 11.9795
ltoes -21.9775
128
root 25.8235 15.0423 -2.70977 -0.024024 -76.3544 1.50581
lowerback 7.65841 0.0839895 -2.97874
upperback 5.50431 -0.211072 -0.0884874
thorax 1.40711 -0.250519 1.5911
lowerneck -10.7711 3.01956 6.68155
upperneck 17.9879 3.09256 -1.89054
head 7.4469 1.69358 -1.43367
rclavicle -1.81888e-014 1.23246e-014
rhumerus -33.5376 -5.37066 -85.3677
rradius 28.3743
rwrist -15.3574
rhand -16.3959 -1.63222
rfingers 7.12502
rthumb 9.81818 -31.3833
lclavicle -1.81888e-014 1.23246e-014
lhumerus -27.7178 -9.82794 91.3861
lradius 40.6734
lwrist 4.58274
lhand -19.5283 9.71918
lfingers 7.12502
lthumb 6.79522 39.5901
rfemur -28.2903 11.4528 22.1902
rtibia 35.685
rfoot -20.3791 -21.6755
rtoes -24.8109
lfemur 17.094 -3.68085 -26.1561
ltibia 24.616
lfoot -9.90346 9.97602
ltoes -23.1877
129
root 25.5403 15.0695 -2.67109 2.20187 -76.2522 -0.721644
lowerback 7.61753 0.064569 -2.32763
upperback 5.43678 -0.195544 0.103769
thorax 1.35477 -0.225094 1.42323
lowerneck -10.8346 2.98349 6.61913
upperneck 18.203 3.03445 -1.83039
head 7.52419 1.66771 -1.40906
rclavicle -5.61567e-015 -5.96354e-016
rhumerus -33.5822 -5.42433 -85.2818
rradius 28.2042
rwrist -15.3136
rhand -16.3222 -1.57404
rfingers 7.12502
rthumb 9.88936 -31.3218
lclavicle -5.61567e-015 -5.96354e-016
lhumerus -28.4389 -9.37927 91.1954
lradius 40.2988
lwrist 4.74334
lhand -19.985 10.4249
lfingers 7.12502
lthumb 6.35428 40.3095
rfemur -26.8607 11.0555 23.1562
rtibia 35.2572
rfoot -20.4833 -21.5443
rtoes -24.7857
lfemur 13.7284 -2.52246 -24.5651
ltibia 31.6361
lfoot -7.47429 8.06128
ltoes -24.2554
